<svg xmlns="http://www.w3.org/2000/svg" viewBox="0 0 595.28 595.28"><defs><style>.a{fill:#dadaed;}</style></defs><title>pattern_10</title><path class="a" d="M412.23,0.31a228.32,228.32,0,0,0,29.18,10.75c5.25,1.55,10.28,3.84,15.38,5.86a2.49,2.49,0,0,1,1.09,3.78,72.76,72.76,0,0,1-9.81,12c-4,3.76-8.08,7.45-12.13,11.16S427.81,51.3,423.74,55c-1.58,1.44-3.14,2.91-4.79,4.26a308.35,308.35,0,0,1-43.84,29.84,12,12,0,0,1-2.79.72,21.38,21.38,0,0,1-.74-3.66,158.37,158.37,0,0,0-2.7-23.65c-1.2-6.91-2-13.89-2.86-20.87-1.25-10.33-3.66-20.43-5.92-30.56-0.82-3.69-1.67-7.36-2.33-11.07h-5.9c0.56,3.54,1.3,7,2.12,10.54a407,407,0,0,1,7.93,41.34c0.93,7.27,2.21,14.49,3.18,21.75,0.93,7,1.19,14-1.08,20.86a10.2,10.2,0,0,0-.26,2.42c0.17,0.57.25,0.86,0.35,1.15,0.75,2,4.37,3.74,6.1,2.81s3.7-2.12,5.47-3.29c5.33-3.54,10.59-7.2,16-10.69,4.34-2.83,8.87-5.35,13.17-8.24,4.55-3.06,9.09-6.17,13.33-9.63,11.11-9.06,22.07-18.31,33.07-27.51,2.81-2.35,5.54-4.79,8.29-7.2,3.5-3.06,5.91-7,8.35-10.85A3.49,3.49,0,0,0,468,20a32.21,32.21,0,0,1-1.58-3.3,9.71,9.71,0,0,0-4.87-5.2c-6.48-3.5-13.46-5.75-20.4-8C437.42,2.31,433.69,1.3,430,0H411.55Z"/><path class="a" d="M78.58,462.76a15.89,15.89,0,0,0-3.35-1.23c-6.71-1-13.07-3.3-19.54-5.2a86.81,86.81,0,0,0-18.78-3.09c-19.93-1.34-26-1.78-36.92-3.53V458q6,0.73,11.94,1.38c8.29,0.89,16.63,1.5,25,1.69,10.58,0.24,20.16,4.13,29.92,7.45,1.66,0.56,2.89,3.16,2.42,4.94a33.34,33.34,0,0,1-1.45,4.5,37.39,37.39,0,0,0-2.87,16.32c0.37,9.18-.79,18.26-1.65,27.35-0.64,6.73-1.4,13.45-.44,20.21a14.1,14.1,0,0,1-.25,3.53,3.82,3.82,0,0,1-4.25,3.19c-7.83-1.84-15.83-1.11-23.73-1.8-4.7,1.5-9.25-1.11-14-.42a62,62,0,0,1-10.7.22L0,546.27V555l1.59,0c9.52,0.21,19,.24,28.55.67,9.85,0.45,19.88-1.63,29.53,2a4.43,4.43,0,0,0,1.17.17,6.88,6.88,0,0,0,6.9-5.27c1-5.48,2-10.94,2.73-16.46,1.78-14.19,3.58-28.38,4.92-42.61a42.29,42.29,0,0,1,2.86-12.66c1.53-3.66,2.7-7.47,3.92-11.25C83,467.12,81.11,463.77,78.58,462.76Z"/><path class="a" d="M580.24,207.21c-5.06.72-10.22,0.76-15.33,1a1.39,1.39,0,0,1-1.48-1.56c0.08-.74-0.1-1.92.29-2.15,4.67-2.8,7.26-7.11,9.17-12a11.67,11.67,0,0,1,1.88-3c5.54-6.76,9.72-14.42,14.31-21.8a54.5,54.5,0,0,1,6.2-8.22V134.38a57.24,57.24,0,0,0-9.07,11.46c-2.42,4.11-4.82,8.22-7.42,12.21-5.42,8.31-11,16.49-15.73,25.27-1.48,2.76-3.76,5.09-5.62,7.65-2.33,3.2-4.69,6.39-6.89,9.67a24.22,24.22,0,0,0-1.79,3.83c0.31,3.3.42,6.08,0.87,8.82,0.84,5,6.33,8.71,11.51,7.9,2.75-.43,5.47-1.1,8.23-1.3a238,238,0,0,0,25.91-3.62V205.76A149.1,149.1,0,0,0,580.24,207.21Z"/><path class="a" d="M187,4.28a124.35,124.35,0,0,0-3.73,23.47c-0.36,6.81,2.2,12.36,7.39,17.88,5.14,4.77,12.18,6.9,20,7.1,4.18-1.65,8.62-.68,12.9-1.24a8.07,8.07,0,0,0,3.16-1.56c1.4-1,1.17-4.36-.33-5.19a8.65,8.65,0,0,0-3.21-1.33c-4.35-.36-8.71-0.51-13.07-0.72a26.81,26.81,0,0,1-10.36-2.46c-4.63-2.21-7.5-5.76-7.78-11.07a58.56,58.56,0,0,1,1.44-15.36c1-4.61,2.05-9.22,3.14-13.81H188Q187.5,2.14,187,4.28Z"/><path class="a" d="M496.62,386.16c-0.06-5.95-.48-12,0.38-17.83,1.3-8.73,1.22-17.4.82-26.13-0.84-18.24-1.33-36.48-.28-54.74,0.55-9.51.63-19,1.12-28.56,0.47-9.18,1.82-18.18,6.35-26.41a13.24,13.24,0,0,0,.91-3c-0.09-.77-0.11-1.16-0.18-1.55-0.48-2.73-4.7-5.82-7.13-5-2.63.84-5.23,1.83-7.78,2.91-7.66,3.25-15.25,6.68-22.94,9.86-6.22,2.58-12.62,4.73-18.79,7.39-6.55,2.82-13.09,5.72-19.34,9.14-16.36,8.94-32.58,18.15-48.83,27.29-4.15,2.34-8.22,4.81-12.32,7.23-5.2,3.08-9.22,7.5-13.25,11.88a4.53,4.53,0,0,0-1,4.45,41.92,41.92,0,0,1,1.23,4.59,12.63,12.63,0,0,0,5,7.8c7.45,6,15.83,10.56,24.18,15.05,5.59,3,11.34,5.66,16.67,9.14q9,5.86,18.06,11.51a127.08,127.08,0,0,0,13.37,7.74A116,116,0,0,1,457,374c9,7.25,19.21,12.62,29,18.64C493.46,397.28,496.72,395.18,496.62,386.16ZM431,347.75a72.42,72.42,0,0,1-10.06-6.35,296.92,296.92,0,0,0-34.74-20.69c-6.34-3.23-12.23-7.36-18.26-11.16a3.24,3.24,0,0,1-.49-5.09c4.78-4.77,9.7-9.39,15.42-13.06,6-3.86,12.1-7.6,18.17-11.37s12.15-7.53,18.23-11.27c2.37-1.46,4.71-3,7.14-4.3a400.9,400.9,0,0,1,63.15-27.7,15.61,15.61,0,0,1,3.74-.25,27.8,27.8,0,0,1,.07,4.85,205.93,205.93,0,0,0-2.18,30.87c-0.12,9.12-.72,18.24-1.31,27.36-0.87,13.5-.19,27,0.29,40.48,0.31,8.74.73,17.43-.3,26.16-0.6,5.11-.59,10.29-0.87,15.43-0.06,1-1.84,1.76-2.78,1.16-7.37-4.66-15-9-22-14.1C453.48,361.07,442.89,353.41,431,347.75Z"/><path class="a" d="M411.95,588a97.6,97.6,0,0,0-11.2-4A89.17,89.17,0,0,1,380.36,576c-7.84-4.21-16.3-6.83-24.54-10-6.31-2.43-8.48-.38-7.13,6.42,0.89,4.49,2.06,9,2.22,13.53a78.67,78.67,0,0,0,.94,9.33h5.9a79.38,79.38,0,0,1-1.13-8.75c-0.26-3.95-1-7.86-1.52-11.79a1.56,1.56,0,0,1,1.94-1.27c6.23,2.48,12.58,4.72,18.64,7.56,9.14,4.28,18.22,8.57,28,11.17a50.16,50.16,0,0,1,7.82,3.07H430c-0.95-.34-1.89-0.69-2.82-1.08Q419.62,591,411.95,588Z"/><path class="a" d="M270.2,122.47c-0.34,8,1.88,15.76,2.69,23.65,2.35,4.33.65,9.29,2.21,13.82a62,62,0,0,1,2.22,10.46c1.38,8.63,2.8,17.26,3.86,25.93,0.81,6.7.93,13.47,2.48,20.09a23.35,23.35,0,0,1,.17,5.94c-0.19,5.57-.46,11.12-0.7,16.68h0.06c-0.22,4-.5,7.94-0.64,11.91-0.12,3.57-.2,7.15-0.11,10.73a11.59,11.59,0,0,0,3,7.58c1.44,1.62,5.39.93,6.09-1.17a13,13,0,0,0,1-4.56c-0.69-12.73.27-25.44,0.52-38.15a63,63,0,0,0-.13-9.52c-1.42-10.63-3.1-21.23-4.68-31.84-0.36-2.36-.74-4.71-1.14-7.06-1.58-9.39-3.35-18.75-4.7-28.17-1.4-9.76-5.34-19.22-3.63-29.37a4.44,4.44,0,0,0-.05-1.18,6.88,6.88,0,0,0-6.47-5.79c-5.56.09-11.13,0.05-16.68,0.41-14.27.92-28.55,1.82-42.78,3.17a42.29,42.29,0,0,1-13-.43c-3.88-.81-7.84-1.25-11.79-1.74-2.52-.31-5.47,2.13-6,4.8a15.89,15.89,0,0,0-.58,3.52c0.27,6.78-.79,13.46-1.44,20.17a86.83,86.83,0,0,0,.49,19c3.48,28.48,3.43,28.48,3.81,55.85,0,0.4,0,.79,0,1.19a279.93,279.93,0,0,0,4.34,40.23c0.2,1.17.52,2.32,0.82,3.47a4.24,4.24,0,0,0,3.54,2.71c1.63,0.06,3.68-2.1,3.64-4s-0.19-4-.35-5.93c-1.05-12.67-3-25.25-3.27-38-0.2-10.72-.93-21.45-1.81-32.15-0.68-8.31-1.65-16.61-3-24.83-1.75-10.44.27-20.57,1.7-30.78,0.24-1.74,2.56-3.44,4.39-3.31a33.4,33.4,0,0,1,4.7.58,37.39,37.39,0,0,0,16.57-.24c9-2.09,18.08-2.65,27.18-3.52,6.73-.64,13.47-1.15,19.93-3.36a14.1,14.1,0,0,1,3.52-.42A3.82,3.82,0,0,1,270.2,122.47Z"/><path class="a" d="M575.46,446.28a279.91,279.91,0,0,0-40.33-3.3c-1.19,0-2.38.07-3.56,0.15a4.24,4.24,0,0,0-3.33,3c-0.37,1.59,1.37,4,3.23,4.33s3.92,0.56,5.89.77c12.64,1.34,25.37,1.76,37.94,3.93,6.63,1.14,13.3,2.06,20,2.88v-8.3c-4.77-.76-10.46-1.77-18.65-3.22Z"/><path class="a" d="M579,545.5c-6.73-.46-13.4-1.61-20.2-1.34a23.38,23.38,0,0,1-5.86-1c-5.43-1.23-10.84-2.55-16.25-3.82v0.06c-3.86-1-7.7-2-11.58-2.87-3.49-.79-7-1.54-10.52-2.13a11.59,11.59,0,0,0-8,1.57c-1.86,1.11-1.92,5.12,0,6.2a13,13,0,0,0,4.28,1.88c12.64,1.71,24.93,5,37.37,7.67a63,63,0,0,0,9.37,1.65c10.71,0.6,21.43.95,32.15,1.38,1.85,0.07,3.7.12,5.56,0.16v-8.7C589.84,546.09,584.4,545.87,579,545.5Z"/><path class="a" d="M47,210.84c1.55,0.22,3.17,0,4.75.05,6.35,0.24,12.73.33,18.36,3.93a3.73,3.73,0,0,0,1.16.2c1.08,0.23,3.17-1.45,3.49-2.71a5.05,5.05,0,0,0-1.68-5.37c-4.68-3.86-8-8.81-11.24-13.8S55.67,183,52.4,178c-4.57-7-9.26-13.86-13.94-20.75-3.79-5.58-7.58-11.16-11.51-16.65-3-4.19-6.14-8.31-9.42-12.29-2.09-2.53-7.35-2.9-9.84-.85C5,129.67,2.43,131.95,0,134.38v25.14a44.43,44.43,0,0,1,4.6-4.34,45.85,45.85,0,0,0,8.77-9.63c1.1-1.6,2.9-1.67,3.94-.3,10.56,13.85,21.8,27.2,30.31,42.52,2.49,4.48,5.5,8.67,8.15,13.07,0.21,0.34-.51,1.34-0.94,1.93a1.68,1.68,0,0,1-1.12.3c-15.81.84-31.56,2.84-47.44,2.61-2.1,0-4.19,0-6.28.1v10.51c5.08-.94,10.14-1.94,15.21-2.89C25.73,211.41,36.23,209.32,47,210.84Z"/><path class="a" d="M422.3,528.93a73.51,73.51,0,0,0-10.13-6.23c-11.29-5.8-19.61-14.77-26.71-25a59.16,59.16,0,0,1-10.63-26.37c-0.06-5.15,0-10.3-.2-15.45-0.35-10.39,3.39-20.34,3.21-30.71,2.18-6.52,2.16-13.32,2.28-20.05a73.49,73.49,0,0,0-9.66-37.6c-3.43-6.17-8.53-10.19-15-13-11.58-5-24-5.37-36.17-6.12-9.08-.56-18.25.29-27.38,0.56a34.21,34.21,0,0,1-11.72-1.77,15.15,15.15,0,0,1-8.23-6.5c-2.91-4.5-3.87-9.51-4.26-14.72-0.21-2.8-.21-5.53,1.61-8a12.58,12.58,0,0,0,2.25-6.69c0.08-1-1-2.57-2-2.47a3.49,3.49,0,0,0-2.1.81,8,8,0,0,0-1.83,3c-2.28,7.7-3.3,15.62-1.71,23.5,2.86,14.19,9.62,21.92,28,21.1a6.44,6.44,0,0,0,1.18-.15,30.48,30.48,0,0,1,11.84-.36,16.31,16.31,0,0,0,5.93-.11c7.15-1.57,14.2-1,21.27.41a41.28,41.28,0,0,0,7.1.81C345,358,350.07,360.34,355,363a18.62,18.62,0,0,1,7.49,7.49c7.15,12.9,10.22,26.66,8.27,41.33-1.15,8.65-2.81,17.23-4.18,25.85-1.75,11-2.85,22-2.24,33.19,0.46,8.47,2.8,16.39,5.84,24.19,4.29,11,12.28,19.33,20.14,27.79,9.45,10.16,21.82,14,34.81,16.63a3.72,3.72,0,0,0,3.05-1.36,3.39,3.39,0,0,0-.16-3.16A30.92,30.92,0,0,0,422.3,528.93Z"/><path class="a" d="M153.45,324.78a126.8,126.8,0,0,0-13,1.25c-12.92,2.06-25.81,4.31-38.72,6.47a16.75,16.75,0,0,1-4.68.48,5,5,0,0,1-2.86-1.84,12.69,12.69,0,0,1-1.42-3.25c-4.7-11.38-8.12-23.2-12-34.86-2.49-7.51-5.45-14.89-5.6-23a9.26,9.26,0,0,0-2.58-6.48,2.72,2.72,0,0,0-2.08-.67A2.19,2.19,0,0,0,69,264.29c-0.73,9.57-.7,19.08,3.86,27.89a63.18,63.18,0,0,1,4.74,13.42,177.22,177.22,0,0,0,7.05,21.46c0.44,1.1.8,2.24,1.17,3.37,0.94,2.9,0,4.85-2.64,5.47-1.54.36-3.11,0.64-4.66,0.94-8.95,1.76-17.91,3.44-26.84,5.32-6.2,1.31-12.33,3-18.52,4.34-7.71,1.68-15.31,4-23.31,4.09a2.67,2.67,0,0,0-1.6,1.55c-1.37,3.08.94,7.5,3.86,7.24a123.2,123.2,0,0,0,15.35-1.79c11.63-2.5,23.16-5.48,34.74-8.17,8.11-1.88,16.24-3.66,24.39-5.38a3.77,3.77,0,0,1,4.64,2.63,30.23,30.23,0,0,1,1.47,4.52c3.21,17.58,8.52,34.64,12.64,52,1.37,5.77,3,11.49,4.87,17.13a65.75,65.75,0,0,0,4.24,9.79c0.69,1.32,2.1,2.29,3.29,3.3s3.37,0.06,3.7-1.49a7.18,7.18,0,0,0-.72-5.74,39.3,39.3,0,0,1-5.09-12c-1.27-4.58-2.73-9.12-3.88-13.74Q105,373.34,98.44,346.17a15.4,15.4,0,0,1-.21-2.36,5.35,5.35,0,0,1,1.08-2,10.09,10.09,0,0,1,3.24-1.42A184.19,184.19,0,0,1,133,334.86c8.33-.69,16.41-2.66,24.67-3.65a2.37,2.37,0,0,0,1.32-1.63,3.1,3.1,0,0,0-.48-2.12A5.52,5.52,0,0,0,153.45,324.78Zm-24.61,5.8a0.53,0.53,0,0,1-.33,0,2.49,2.49,0,0,1-.18.2l-0.08-.23-0.37,0,0.2-.48C128.9,329.39,129.18,329.59,128.83,330.58Z"/><path class="a" d="M60,54.36C61,54.22,74.77,52.14,75.84,52c6.13-1,12.28-1.9,18.4-3,4.25-.74,8.46-1.74,12.71-2.5,5.29-1,10.52-2.35,16-2.21a1.82,1.82,0,0,0,1.13-1c1-2.06-.46-5.13-2.45-5a83.94,83.94,0,0,0-10.49.84c-8,1.41-15.9,3.16-23.85,4.71-5.57,1.08-41.49,7.86-48.5,8.18-5.69.26-11.24,1.4-16.88,1.88a1.61,1.61,0,0,0-.94,1.08,2.11,2.11,0,0,0,.28,1.45,3.76,3.76,0,0,0,3.35,1.94,86.34,86.34,0,0,0,8.88-.53C42.29,56.72,51.12,55.51,60,54.36Z"/><path class="a" d="M111,75c5.68,0.41,11.32-.07,17,0.13a1.61,1.61,0,0,0,1.06-1,2.11,2.11,0,0,0-.1-1.48,3.76,3.76,0,0,0-3.1-2.32,86.31,86.31,0,0,0-8.88-.52c-8.91,0-17.82.2-26.73,0.3-1.07,0-15,.45-16.05.49-6.21.25-12.42,0.44-18.62,0.77-4.31.23-8.61,0.72-12.92,1-5.36.32-10.72,1.09-16.12,0.31a1.82,1.82,0,0,0-1.24.88c-1.24,1.93-.15,5.14,1.84,5.28a84,84,0,0,0,10.52.4c8.09-.46,16.16-1.26,24.24-1.86C67.49,77,104,74.47,111,75Z"/><path class="a" d="M200,565.75c-0.71-11.75-9.26-20.21-19.88-22.19a53.26,53.26,0,0,0-21.31.1,40,40,0,0,0-8.91,3.16,10,10,0,0,0-4.74,5.17c-0.38.91,0.09,3.78,1,4.39a4.93,4.93,0,0,0,3.16,1c2.69-.57,5.3-1.57,7.94-2.39A59.72,59.72,0,0,1,182,553a10.54,10.54,0,0,1,7.83,4.83,12.11,12.11,0,0,1,2.13,5.45,58.21,58.21,0,0,1-.17,13c-0.9,6.42-2.24,12.72-3.74,19h8.47c0.38-1.58.74-3.17,1.13-4.75A82.2,82.2,0,0,0,200,565.75Z"/><path class="a" d="M371.86,157.94a8.66,8.66,0,0,0,2.68-2.22c2.34-3.68,4.51-7.47,6.73-11.23a26.81,26.81,0,0,1,7-8c4.12-3.06,8.59-4,13.42-1.72a58.56,58.56,0,0,1,12.92,8.44q7.3,6.11,14.43,12.43a82.2,82.2,0,0,0,20.83,13.62c10.73,4.85,22.2,1.23,28.9-7.24a53.26,53.26,0,0,0,9.84-18.91,40,40,0,0,0,1.36-9.35,10,10,0,0,0-2.36-6.6c-0.63-.76-3.39-1.68-4.37-1.13a4.93,4.93,0,0,0-2.39,2.31c-0.75,2.65-1.08,5.42-1.58,8.14a59.71,59.71,0,0,1-9.71,22.82,10.54,10.54,0,0,1-7.93,4.68,12.12,12.12,0,0,1-5.81-.66,58.19,58.19,0,0,1-11.43-6.22A226.93,226.93,0,0,1,426,142a124.37,124.37,0,0,0-19-14.24c-5.86-3.5-12-3.82-19.27-1.8-6.61,2.33-11.79,7.56-15.59,14.35-0.49,4.47-3.42,7.94-4.92,12a8.08,8.08,0,0,0-.09,3.52C367.31,157.49,370.42,158.88,371.86,157.94Z"/><path class="a" d="M241.17,414.19c-1,.41-2.42,1-2.73,1.89-1.31,3.72-2.11,7.61-3.42,11.33-3.16,9-6.49,17.88-9.76,26.81-1.63,4.47-3.25,8.94-4.94,13.38-1.07,2.82-3,4-5.45,3.14-8.24-2.88-16.65-5.12-25.13-7.19-3.35-.81-6.36-3.11-9.5-4.79a4.22,4.22,0,0,1-1.67-4.15,34.25,34.25,0,0,1,5.62-13c4.83-6.92,7.37-14.92,10.86-22.46,1-2.12,1.19-4.59,1.59-6.21,0.23-3.17-.33-5.41-1.87-7.39-0.85-1.09-3.56-1.08-4.21.07a14.36,14.36,0,0,0-1.18,2c-1.76,4.83-3.39,9.72-5.2,14.54-3.64,9.65-7.4,19.25-11,28.9a71.68,71.68,0,0,0-2.43,7.95c-0.52,2.1,1.35,6.37,3.07,7.33,5.9,3.29,11.84,6.23,18.71,7.38,6.22,1,12.25,3.24,18.34,5,2.41,0.71,10.19,3.54,11.21,2.05a54.22,54.22,0,0,0,4-8.8,66.87,66.87,0,0,1,2.3-6.74c4.54-11.42,9.17-22.81,13.69-34.25a88.43,88.43,0,0,0,3.43-10.11c0.37-1.42-.11-3.11-0.4-4.65C244.85,415.16,242.33,413.73,241.17,414.19Z"/><path class="a" d="M238.43,105.53a0.93,0.93,0,0,0,0-.87,1,1,0,0,0-1.86-.08,1.79,1.79,0,0,0,0,.91A1.07,1.07,0,0,0,238.43,105.53Z"/><path class="a" d="M128.08,330l0.11,0.35c0.48-.17.57-0.08,0.32,0.22a0.53,0.53,0,0,0,.33,0C129.18,329.59,128.9,329.39,128.08,330Z"/><path class="a" d="M127.89,330.48l0.19-.47-0.2.48,0.37,0-0.06-.18Z"/><path class="a" d="M128.33,330.78a2.49,2.49,0,0,0,.18-0.2l-0.26,0Z"/><path class="a" d="M128.19,330.36l-0.11-.35-0.19.47Z"/><path class="a" d="M128.19,330.36l0.06,0.18,0.26,0C128.76,330.28,128.67,330.19,128.19,330.36Z"/></svg>