<svg xmlns="http://www.w3.org/2000/svg" viewBox="0 0 592.39 595.28"><defs><style>.a,.b{fill:#eaeaea;}.a{fill-rule:evenodd;}</style></defs><title>pattern_74</title><path class="a" d="M125.27,480.77c-1.67.44-3.72,0.42-5,1.41-6.44,5.09-12.72,10.37-19,15.7-13.2,11.26-26.25,22.7-39.58,33.79-3.43,2.86-7.57,5-11.6,7-2.73,1.39-5.28-.2-7.5-1.87C39.9,534.71,38.4,529,39.77,527a29.27,29.27,0,0,1,3-4.49c3.18-3.27,6.15-7,9.93-9.4,21.06-13.35,37.56-31.81,55.33-48.84,2-1.89,3.86-3.9,6-5.66,8.84-7.45,12.1-7.82,21.37-.23,11.27,9.23,22.67,18.36,33.33,28.27a263.34,263.34,0,0,0,29.82,24,68.42,68.42,0,0,1,6.23,5.35c3.82,3.38,5.2,9.28,2.85,12.11-1.87,2.26-6.38,2.94-10.14,1.48a135.73,135.73,0,0,1-33.3-18.61c-11.58-8.88-22.83-18.2-34.27-27.27A44.14,44.14,0,0,0,125.27,480.77Z" transform="translate(-1.44 0)"/><path class="a" d="M96.45,89.14C97.71,88,99.5,87,100.12,85.52c3.19-7.56,6.14-15.23,9-22.9,6.13-16.23,12-32.55,18.36-48.7,1.63-4.16,4.24-8,6.79-11.72C136-.33,139-0.17,141.78.22c3.42,0.49,7.48,4.73,7.27,7.21a29.61,29.61,0,0,1-.49,5.4c-1.21,4.4-2,9.1-4.17,13-12,21.86-17.55,46-24.9,69.47-0.82,2.61-1.5,5.28-2.48,7.83-4.15,10.79-6.83,12.69-18.6,10.52C84.08,111,69.69,108.52,55.57,105a263.13,263.13,0,0,0-37.68-6.61,68.36,68.36,0,0,1-8-1.69c-5-1.12-9-5.62-8.34-9.23,0.54-2.88,4.16-5.66,8.17-6.19a135.78,135.78,0,0,1,38.14.23C62.26,83.7,76.61,86.43,91,88.86A43.41,43.41,0,0,0,96.45,89.14Z" transform="translate(-1.44 0)"/><path class="a" d="M507.16,189.26c0.49,1.67.54,3.71,1.56,4.92,5.28,6.29,10.74,12.41,16.25,18.49,11.65,12.87,23.47,25.57,35,38.56,3,3.35,5.18,7.43,7.34,11.39,1.46,2.69,0,5.28-1.65,7.55-2,2.82-7.62,4.5-9.73,3.18a30.44,30.44,0,0,1-4.57-2.9c-3.36-3.08-7.17-5.94-9.68-9.65-14-20.66-32.91-36.6-50.46-53.86-2-1.92-4-3.74-5.84-5.78-7.7-8.62-8.17-11.86-.87-21.35,8.89-11.54,17.68-23.21,27.27-34.16a262,262,0,0,0,23.08-30.51,68.78,68.78,0,0,1,5.16-6.38c3.27-3.92,9.13-5.48,12-3.21,2.32,1.79,3.13,6.29,1.77,10.09a135.79,135.79,0,0,1-17.61,33.83c-8.53,11.84-17.51,23.36-26.24,35.06A44.57,44.57,0,0,0,507.16,189.26Z" transform="translate(-1.44 0)"/><path class="a" d="M26.43,239.6a13.5,13.5,0,0,1,11.14-5.18c13.65,0.28,27.3.86,40.94,1s27.31-.37,41-0.4a78.18,78.18,0,0,1,10.81,1c4.41,0.61,7.84,6.51,7.68,13-0.1,4.37-4.19,9.25-8.16,9.61-2.69.25-5.4,0.43-8.11,0.47-20,.34-40.06.63-60.08,1-2.72.05-5.44,0.41-8.14,0.66-2.55.24-4.44,3.22-3.85,5.9,4.13,18.65,8.33,37.3,12.33,56,1.72,8.07,2.35,16.31-.29,24.3A15.39,15.39,0,0,1,57,353.27c-0.88.75-4.11,0.47-4.62-.36-2.36-3.76-4.93-7.7-5.92-11.94-3.34-14.17-6.35-28.44-8.87-42.77-2.39-13.64-6.67-26.34-14-38.19C18.67,252.07,19.72,247.26,26.43,239.6Z" transform="translate(-1.44 0)"/><path class="a" d="M271.78,424.33c1.48-2.2,3.93-4.25,4.28-6.61,3.14-21.6,8.62-42.82,9.8-64.73a126.36,126.36,0,0,1,2.9-18.85c0.94-4.57,3.72-8.16,7.51-11,2.79-2.09,8.29-.94,9,2.23,0.76,3.51,2,7.11,1.77,10.58-1.35,19.05-.46,38.23-3.62,57.16a37.34,37.34,0,0,0,.08,10.78c0.17,1.31,2.37,3.53,3.26,3.36,7.1-1.39,14.15-3.14,21.16-5,12.28-3.26,24.44-7.06,36.82-9.82,6.5-1.46,12.57.74,17,6.37,1.66,2.12,1.26,5.91-1,6.82a25.54,25.54,0,0,1-2.43,1.18c-28.66,8.82-57.31,17.67-86,26.34a38.69,38.69,0,0,1-10.71,1.46,6.46,6.46,0,0,1-6.44-4.13c-1-2.52-2.2-5-3.31-7.47v1.32Z" transform="translate(-1.44 0)"/><path class="a" d="M482.93,488.81c1.48-2.2,3.93-4.25,4.28-6.61,3.14-21.6,8.62-42.82,9.8-64.73a126.34,126.34,0,0,1,2.9-18.85c0.94-4.57,3.72-8.16,7.51-11,2.79-2.09,8.29-.94,9,2.23,0.76,3.51,2,7.11,1.77,10.58-1.35,19.05-.46,38.23-3.62,57.16a37.34,37.34,0,0,0,.08,10.78c0.17,1.31,2.37,3.53,3.26,3.36,7.1-1.39,14.15-3.14,21.16-5,12.28-3.26,24.44-7.06,36.82-9.82,6.5-1.46,12.57.74,17,6.37,1.66,2.12,1.26,5.91-1,6.82a25.59,25.59,0,0,1-2.43,1.18c-28.66,8.82-57.31,17.67-86,26.34a38.68,38.68,0,0,1-10.71,1.46,6.46,6.46,0,0,1-6.44-4.13c-1-2.52-2.2-5-3.31-7.47v1.32Z" transform="translate(-1.44 0)"/><path class="a" d="M237.19,126.14c1.27-1.3,2.56-2.59,3.81-3.92,3.42-3.7,7.9-5.33,12.21-3,25.77,13.6,52.64,24.65,79.75,35.17,4.3,1.66,8,4.4,9.87,8.84a11.19,11.19,0,0,1,.63,5.21c-0.2,2.13-4.05,4.44-6.23,4.07a124,124,0,0,1-38.51-13.08c-7.22-3.94-14.5-7.34-22.79-8.72-8-1.32-14.09.54-18.75,7.5-9.2,13.71-15.49,28.8-21.4,44.06-2.64,6.83-5.19,13.61-10.06,19.19a9.32,9.32,0,0,1-4.16,3c-1.61.42-4.37,0.44-5.14-.54-4.7-6-7-13.09-4.34-20.26,4.77-12.76,10.84-25,15.76-37.74,4.24-11,7.72-22.31,11.36-33.55a7,7,0,0,0-1.59-7.47S237.19,126.14,237.19,126.14Z" transform="translate(-1.44 0)"/><path class="b" d="M399.26,572.18a135.73,135.73,0,0,0,6.53-37.59c0.14-4-2-8.07-4.75-9.08-3.44-1.28-8.55,2-10.48,6.7a68.43,68.43,0,0,0-3,7.65,263.37,263.37,0,0,1-12.74,36.07c-2.78,6.37-5.32,12.84-7.78,19.35h24.26C394,587.6,396.73,579.92,399.26,572.18Z" transform="translate(-1.44 0)"/><path class="b" d="M366.5,41.56c2.36,1.39,4.88,2.5,7.32,3.74,22,11.13,44.84,20.57,64.42,36,3.51,2.77,8,4.33,12.15,6.25a29.31,29.31,0,0,0,5.24,1.37c2.4,0.61,7.26-2.69,8.3-6,0.84-2.64,1.49-5.57-.72-7.69-3.25-3.12-6.6-6.33-10.44-8.63-14.89-8.9-30-17.42-45-26.15-7.09-4.13-14.16-8.31-21.09-12.69-1.34-.85-2-2.79-3-4.22a44,44,0,0,1,1.17-5.32C387,12.17,389.16,6.08,391.31,0H367.06c-2.69,7.13-5.25,14.31-7.85,21.47C355.12,32.73,356.55,35.68,366.5,41.56Z" transform="translate(-1.44 0)"/></svg>