<svg xmlns="http://www.w3.org/2000/svg" viewBox="0 0 595.28 589.24"><defs><style>.a{fill:#e2e2e2;}</style></defs><title>pattern_55</title><path class="a" d="M595.28,589.66v-42c-24.82-1.23-50.12-5.74-71.16-6.16-69.26-1.4-138.8,5.43-208.25,5.67-70.85.25-141.93-2.9-212.73-.37C81.93,547.52,35.82,547,0,547.63v42c82-1.69,203.93-.47,270.23,1.33q43.13,1.18,86.26,1.27h1.74c47.93,0,95.78-1.21,143.36-4.17C521.17,586.86,561.92,589.5,595.28,589.66Z" transform="translate(0 -3.02)"/><path class="a" d="M213.88,345.1c53.23,0.82,106.38,3.08,159.63.54,45.21-2.16,90.91,4.34,136.36,3.43,14.92-.3,53,3.7,85.4,3.66V313.18c-33,.6-71.57-5.75-92.51-5.6-34.13.25-70.84-1.84-105-.51-52.87,2.07-102.48-5.8-155.7-6.29-39.27-.36-78.32-0.93-117.64.7-34.05,1.4-84.73,6.87-124.44,11.7v39.55c44.94-4.3,110.84-6.31,141.74-7C165.75,345.15,189.83,344.72,213.88,345.1Z" transform="translate(0 -3.02)"/><path class="a" d="M240.74,165.13c35.46,0.77,70.91,1.35,106.36,2.16,32.83,0.74,65.74,2.63,98.48,2.32,33.34-.32,98.53,5.11,149.69,2.43V126.42c-56.77,1.87-136-1.26-163.66-1.32-59.4-.14-118.91-3-178.38-4.32-26.56-.57-53.44-1.45-79.64.18-45.2,2.83-119.8,4.41-173.59,5.46V172c38.38-.82,79.34-1.41,116-3.37C157.49,166.44,198.87,164.22,240.74,165.13Z" transform="translate(0 -3.02)"/><path class="a" d="M77,530.25c51.82-.34,103.74.23,155.46-1,63.13-1.45,126.17-3,189.53-1,18.86,0.57,37.94-.18,56.67-1.4,30.55-2,77.15,5.11,116.66,3V485.83c-60.43,2.78-146.57-1-188.5-2.11-44.18-1.15-88.52-.39-132.61.91-41.66,1.23-83.23,1.9-125,1.49-34.69-.33-100.64-0.49-149.15-0.3v44.05C28.45,530,62.92,530.34,77,530.25Z" transform="translate(0 -3.02)"/><path class="a" d="M73,408.44c59.44,0.15,118.86-.1,178.3.11q104.6,0.38,209.24,1.3c40.57,0.32,90.62-2.42,134.72-1.21V366.88c-46.63,3.7-107.62-.8-137.32-1.39-53.23-1.05-106.48-.78-159.71-1-76-.34-152.09-0.33-228.14-1.11A684.62,684.62,0,0,0,0,366.88v41.76C27.92,408.06,63.91,408.42,73,408.44Z" transform="translate(0 -3.02)"/><path class="a" d="M73.45,48.11c59.44,0.15,118.86-.1,178.3.11Q356.35,48.6,461,49.52c40.44,0.32,98-.85,134.29-1.2V6.64C548.7,10.33,488,5.75,458.39,5.16c-53.23-1.05-106.48-.78-159.71-1C222.63,3.8,146.59,3.81,70.54,3A683.61,683.61,0,0,0,0,6.6V48.32C28,47.73,64.29,48.09,73.45,48.11Z" transform="translate(0 -3.02)"/><path class="a" d="M272.7,227.4c40.42-.77,80.43-5.08,121.26-2.49,52.77,3.34,135.6,10,201.32,8.08V189.2c-70.09,1.21-173.58-6.62-215.84-9.25-17.48-1.09-35.34.47-53,1.05-35.31,1.17-70.58,2.7-105.9,3.73-41.68,1.2-83.43,1.78-125.09,3.11C75.66,188.48,32.09,189,0,189.76V233c45-.76,117.86-0.52,144-1.47C186.89,229.94,229.75,228.21,272.7,227.4Z" transform="translate(0 -3.02)"/><path class="a" d="M129.59,288.1c65.61-1,131.48,1,197.24,1.79,41.7,0.47,83.35.8,124.7-2.59,23.62-1.94,47.65,1.63,71.33-.12,13.78-1,44.5,1.82,72.41.85V243.37c-27.19,1.35-56.52-.62-68.38-0.54-49.35.34-97.07,3.42-146.78,3.18-45.41-.21-90.85.48-136.36-0.58-39.22-.91-78.75-3.17-117.59-1.54-23.69,1-85.65.22-126.17-.52V288C41.73,288.65,102.93,288.5,129.59,288.1Z" transform="translate(0 -3.02)"/><path class="a" d="M71.83,471.48c44.45-5.79,89.78-8.14,135.28-8.21,51.94-.08,104,2.15,156,2.6,39.23,0.34,77.81,5.26,116.75,3.41,33-1.57,76.8,5.65,115.44,3.06V426.89c-29.37.95-64-3.91-77.73-3-62.84,4.33-125.25-1.51-188.75-2.7-59.52-1.12-119.11-1-178.58-.26-31.44.37-102.43,2.56-150.21,5.93v45.45C28.28,472.33,64.15,472.48,71.83,471.48Z" transform="translate(0 -3.02)"/><path class="a" d="M240.78,107.86c73.29,1.7,146.55,6.46,219.77,2.08,33-2,88.82.53,134.73-1V65.17c-42.72,1.2-95.86-3.88-108.23-2.77-75.21,6.72-150.94,5.21-226.83-.08-13.75-1-27.73-1.61-41.47-1.28-37.75.92-75.38,2.76-113.14,3.6C87.23,65,33.92,64.62,0,65.17v43.76c40.18-.28,101,0,127.3-0.38C165.11,108,203,107,240.78,107.86Z" transform="translate(0 -3.02)"/></svg>