<svg xmlns="http://www.w3.org/2000/svg" width="524.409px" height="524.409" viewBox="0 0 524.409 524.409"><g id="Laag_1">
	<rect x="28.346" y="28.346" width="240.945" height="28.346" />
</g>
<g id="Laag_1">
	<rect x="240.945" y="28.346" width="240.945" height="28.346" />
</g>
<g id="Laag_1">
	
		<rect x="347.244" y="134.646" transform="matrix(6.123234e-17 -1 1 6.123234e-17 318.8976 616.5355)" width="240.945" height="28.346" />
</g>
<g id="Laag_1">
	
		<rect x="347.244" y="347.244" transform="matrix(6.123234e-17 -1 1 6.123234e-17 106.2992 829.1339)" width="240.945" height="28.346" />
</g>
<g id="Laag_1">
	<rect x="240.945" y="453.543" width="240.945" height="28.346" />
</g>
<g id="Laag_1">
	
		<rect x="28.346" y="453.543" transform="matrix(-1 -1.224647e-16 1.224647e-16 -1 297.6378 935.4331)" width="240.945" height="28.346" />
</g>
<g id="Laag_1">
	
		<rect x="-77.953" y="347.244" transform="matrix(6.123234e-17 -1 1 6.123234e-17 -318.8976 403.937)" width="240.945" height="28.346" />
</g>
<g id="Laag_1">
	
		<rect x="-77.953" y="134.646" transform="matrix(6.123234e-17 -1 1 6.123234e-17 -106.2992 191.3386)" width="240.945" height="28.346" />
</g>
</svg>